<mxfile host="app.diagrams.net" agent="Mozilla/5.0 (Macintosh; Intel Mac OS X 10_15_7) AppleWebKit/605.1.15 (KHTML, like Gecko) Version/17.6 Safari/605.1.15" version="24.7.7">
  <diagram name="Страница — 1" id="O6acOKVQjmyDi4PtnxeY">
    <mxGraphModel dx="1853" dy="720" grid="1" gridSize="10" guides="1" tooltips="1" connect="1" arrows="1" fold="1" page="1" pageScale="1" pageWidth="827" pageHeight="1169" math="0" shadow="0">
      <root>
        <mxCell id="0" />
        <mxCell id="1" parent="0" />
        <mxCell id="8ycHwIcPBkL53dI1Rve8-1" value="TypeCommands" style="swimlane;fontStyle=0;childLayout=stackLayout;horizontal=1;startSize=26;horizontalStack=0;resizeParent=1;resizeParentMax=0;resizeLast=0;collapsible=1;marginBottom=0;align=center;fontSize=14;" vertex="1" parent="1">
          <mxGeometry x="-170" y="50" width="380" height="360" as="geometry">
            <mxRectangle x="230" y="200" width="170" height="30" as="alternateBounds" />
          </mxGeometry>
        </mxCell>
        <mxCell id="8ycHwIcPBkL53dI1Rve8-3" value="Класс для описания команд для осциллографа. Структуры данных из STL" style="text;spacingLeft=4;spacingRight=4;overflow=hidden;rotatable=0;points=[[0,0.5],[1,0.5]];portConstraint=eastwest;fontSize=12;whiteSpace=wrap;html=1;strokeWidth=1;perimeterSpacing=1;strokeColor=default;" vertex="1" parent="8ycHwIcPBkL53dI1Rve8-1">
          <mxGeometry y="26" width="380" height="44" as="geometry" />
        </mxCell>
        <mxCell id="8ycHwIcPBkL53dI1Rve8-2" value="&lt;div&gt;-&amp;nbsp;_oscilloscope :&amp;nbsp;Oscilloscope*&lt;/div&gt;- _PREFIX : string&lt;div&gt;&lt;div&gt;-&amp;nbsp;_COMMAND : string&lt;/div&gt;&lt;div&gt;&lt;br&gt;&lt;/div&gt;&lt;div&gt;&lt;br&gt;&lt;/div&gt;&lt;div&gt;&lt;br&gt;&lt;/div&gt;&lt;div&gt;&lt;br&gt;&lt;/div&gt;&lt;/div&gt;" style="text;strokeColor=none;fillColor=none;spacingLeft=4;spacingRight=4;overflow=hidden;rotatable=0;points=[[0,0.5],[1,0.5]];portConstraint=eastwest;fontSize=12;whiteSpace=wrap;html=1;" vertex="1" parent="8ycHwIcPBkL53dI1Rve8-1">
          <mxGeometry y="70" width="380" height="50" as="geometry" />
        </mxCell>
        <mxCell id="8ycHwIcPBkL53dI1Rve8-7" value="&lt;div style=&quot;caret-color: rgb(0, 0, 0); color: rgb(0, 0, 0); font-family: Helvetica; font-size: 12px; font-style: normal; font-variant-caps: normal; font-weight: 400; letter-spacing: normal; orphans: auto; text-align: left; text-indent: 0px; text-transform: none; white-space: normal; widows: auto; word-spacing: 0px; -webkit-text-stroke-width: 0px; text-decoration: none;&quot;&gt;- parseContent( const string&amp;amp;, const size_t&amp;amp;, const size_t&amp;amp; ) : pair&amp;lt;vector&amp;lt;string&amp;gt;, size_t&amp;gt;&lt;/div&gt;&lt;div style=&quot;caret-color: rgb(0, 0, 0); color: rgb(0, 0, 0); font-family: Helvetica; font-size: 12px; font-style: normal; font-variant-caps: normal; font-weight: 400; letter-spacing: normal; orphans: auto; text-align: left; text-indent: 0px; text-transform: none; white-space: normal; widows: auto; word-spacing: 0px; -webkit-text-stroke-width: 0px; text-decoration: none;&quot;&gt;- sendToSock( const int&amp;amp;, const string&amp;amp; )&lt;/div&gt;&lt;div style=&quot;caret-color: rgb(0, 0, 0); color: rgb(0, 0, 0); font-family: Helvetica; font-size: 12px; font-style: normal; font-variant-caps: normal; font-weight: 400; letter-spacing: normal; orphans: auto; text-align: left; text-indent: 0px; text-transform: none; white-space: normal; widows: auto; word-spacing: 0px; -webkit-text-stroke-width: 0px; text-decoration: none;&quot;&gt;- getErrorMessage( const string&amp;amp;, const exception&amp;amp; ) : string&lt;/div&gt;&lt;div style=&quot;caret-color: rgb(0, 0, 0); color: rgb(0, 0, 0); font-family: Helvetica; font-size: 12px; font-style: normal; font-variant-caps: normal; font-weight: 400; letter-spacing: normal; orphans: auto; text-align: left; text-indent: 0px; text-transform: none; white-space: normal; widows: auto; word-spacing: 0px; -webkit-text-stroke-width: 0px; text-decoration: none;&quot;&gt;- getErrorMessage( const string&amp;amp;, const string&amp;amp; ) : string&lt;/div&gt;&lt;div style=&quot;caret-color: rgb(0, 0, 0); color: rgb(0, 0, 0); font-family: Helvetica; font-size: 12px; font-style: normal; font-variant-caps: normal; font-weight: 400; letter-spacing: normal; orphans: auto; text-align: left; text-indent: 0px; text-transform: none; white-space: normal; widows: auto; word-spacing: 0px; -webkit-text-stroke-width: 0px; text-decoration: none;&quot;&gt;- getErrorMessage( const string&amp;amp;, const int&amp;amp; ) : string&lt;/div&gt;&lt;div style=&quot;caret-color: rgb(0, 0, 0); color: rgb(0, 0, 0); font-family: Helvetica; font-size: 12px; font-style: normal; font-variant-caps: normal; font-weight: 400; letter-spacing: normal; orphans: auto; text-align: left; text-indent: 0px; text-transform: none; white-space: normal; widows: auto; word-spacing: 0px; -webkit-text-stroke-width: 0px; text-decoration: none;&quot;&gt;- getErrorMessage() : string&lt;br&gt;&lt;/div&gt;&lt;div style=&quot;caret-color: rgb(0, 0, 0); color: rgb(0, 0, 0); font-family: Helvetica; font-size: 12px; font-style: normal; font-variant-caps: normal; font-weight: 400; letter-spacing: normal; orphans: auto; text-align: left; text-indent: 0px; text-transform: none; white-space: normal; widows: auto; word-spacing: 0px; -webkit-text-stroke-width: 0px; text-decoration: none;&quot;&gt;- getErrorUnknownMessage() : string&lt;br&gt;&lt;/div&gt;&lt;div style=&quot;caret-color: rgb(0, 0, 0); color: rgb(0, 0, 0); font-family: Helvetica; font-size: 12px; font-style: normal; font-variant-caps: normal; font-weight: 400; letter-spacing: normal; orphans: auto; text-align: left; text-indent: 0px; text-transform: none; white-space: normal; widows: auto; word-spacing: 0px; -webkit-text-stroke-width: 0px; text-decoration: none;&quot;&gt;- getSuccessMessage( const size_t&amp;amp; ) : string&lt;br&gt;&lt;/div&gt;&lt;div style=&quot;caret-color: rgb(0, 0, 0); color: rgb(0, 0, 0); font-family: Helvetica; font-size: 12px; font-style: normal; font-variant-caps: normal; font-weight: 400; letter-spacing: normal; orphans: auto; text-align: left; text-indent: 0px; text-transform: none; white-space: normal; widows: auto; word-spacing: 0px; -webkit-text-stroke-width: 0px; text-decoration: none;&quot;&gt;- getSuccessMessage( const string&amp;amp; ) : string&lt;/div&gt;&lt;div style=&quot;caret-color: rgb(0, 0, 0); color: rgb(0, 0, 0); font-family: Helvetica; font-size: 12px; font-style: normal; font-variant-caps: normal; font-weight: 400; letter-spacing: normal; orphans: auto; text-align: left; text-indent: 0px; text-transform: none; white-space: normal; widows: auto; word-spacing: 0px; -webkit-text-stroke-width: 0px; text-decoration: none;&quot;&gt;- getSuccessMessage( const string&amp;amp;, const vector&amp;lt;string&amp;gt;&amp;amp; ) : string&lt;/div&gt;&lt;div style=&quot;caret-color: rgb(0, 0, 0); color: rgb(0, 0, 0); font-family: Helvetica; font-size: 12px; font-style: normal; font-variant-caps: normal; font-weight: 400; letter-spacing: normal; orphans: auto; text-align: left; text-indent: 0px; text-transform: none; white-space: normal; widows: auto; word-spacing: 0px; -webkit-text-stroke-width: 0px; text-decoration: none;&quot;&gt;- getSuccessMessage( const vector&amp;lt;size_t&amp;gt;&amp;amp; ) : string&lt;/div&gt;&lt;div style=&quot;caret-color: rgb(0, 0, 0); color: rgb(0, 0, 0); font-family: Helvetica; font-size: 12px; font-style: normal; font-variant-caps: normal; font-weight: 400; letter-spacing: normal; orphans: auto; text-align: left; text-indent: 0px; text-transform: none; white-space: normal; widows: auto; word-spacing: 0px; -webkit-text-stroke-width: 0px; text-decoration: none;&quot;&gt;- getSuccessMessage( const vector&amp;lt;float&amp;gt;&amp;amp; ) : string&lt;/div&gt;&lt;div style=&quot;caret-color: rgb(0, 0, 0); color: rgb(0, 0, 0); font-family: Helvetica; font-size: 12px; font-style: normal; font-variant-caps: normal; font-weight: 400; letter-spacing: normal; orphans: auto; text-align: left; text-indent: 0px; text-transform: none; white-space: normal; widows: auto; word-spacing: 0px; -webkit-text-stroke-width: 0px; text-decoration: none;&quot;&gt;- getSuccessMessage() : string&lt;/div&gt;&lt;div style=&quot;caret-color: rgb(0, 0, 0); color: rgb(0, 0, 0); font-family: Helvetica; font-size: 12px; font-style: normal; font-variant-caps: normal; font-weight: 400; letter-spacing: normal; orphans: auto; text-align: left; text-indent: 0px; text-transform: none; white-space: normal; widows: auto; word-spacing: 0px; -webkit-text-stroke-width: 0px; text-decoration: none;&quot;&gt;+ TypeCommands( Oscilloscope*, const string&amp;amp;, const string&amp;amp; )&lt;/div&gt;&lt;div style=&quot;caret-color: rgb(0, 0, 0); color: rgb(0, 0, 0); font-family: Helvetica; font-size: 12px; font-style: normal; font-variant-caps: normal; font-weight: 400; letter-spacing: normal; orphans: auto; text-align: left; text-indent: 0px; text-transform: none; white-space: normal; widows: auto; word-spacing: 0px; -webkit-text-stroke-width: 0px; text-decoration: none;&quot;&gt;+ call( const string&amp;amp;, const size_t&amp;amp;, const bool&amp;amp; ) : string&lt;/div&gt;" style="text;spacingLeft=4;spacingRight=4;overflow=hidden;rotatable=0;points=[[0,0.5],[1,0.5]];portConstraint=eastwest;fontSize=12;whiteSpace=wrap;html=1;strokeWidth=1;perimeterSpacing=1;strokeColor=default;" vertex="1" parent="8ycHwIcPBkL53dI1Rve8-1">
          <mxGeometry y="120" width="380" height="240" as="geometry" />
        </mxCell>
        <mxCell id="8ycHwIcPBkL53dI1Rve8-8" value="TypeICommands" style="swimlane;fontStyle=0;childLayout=stackLayout;horizontal=1;startSize=26;horizontalStack=0;resizeParent=1;resizeParentMax=0;resizeLast=0;collapsible=1;marginBottom=0;align=center;fontSize=14;" vertex="1" parent="1">
          <mxGeometry x="447" y="460" width="380" height="130" as="geometry">
            <mxRectangle x="230" y="200" width="170" height="30" as="alternateBounds" />
          </mxGeometry>
        </mxCell>
        <mxCell id="8ycHwIcPBkL53dI1Rve8-9" value="Класс для команд получения информации о осциллографа.&amp;nbsp;&amp;nbsp;Структуры данных из STL" style="text;spacingLeft=4;spacingRight=4;overflow=hidden;rotatable=0;points=[[0,0.5],[1,0.5]];portConstraint=eastwest;fontSize=12;whiteSpace=wrap;html=1;strokeWidth=1;perimeterSpacing=1;strokeColor=default;" vertex="1" parent="8ycHwIcPBkL53dI1Rve8-8">
          <mxGeometry y="26" width="380" height="44" as="geometry" />
        </mxCell>
        <mxCell id="8ycHwIcPBkL53dI1Rve8-10" value="&lt;div&gt;&lt;br&gt;&lt;/div&gt;&lt;div&gt;&lt;div&gt;&lt;br&gt;&lt;/div&gt;&lt;div&gt;&lt;br&gt;&lt;/div&gt;&lt;/div&gt;" style="text;strokeColor=none;fillColor=none;spacingLeft=4;spacingRight=4;overflow=hidden;rotatable=0;points=[[0,0.5],[1,0.5]];portConstraint=eastwest;fontSize=12;whiteSpace=wrap;html=1;" vertex="1" parent="8ycHwIcPBkL53dI1Rve8-8">
          <mxGeometry y="70" width="380" height="20" as="geometry" />
        </mxCell>
        <mxCell id="8ycHwIcPBkL53dI1Rve8-11" value="&lt;div style=&quot;caret-color: rgb(0, 0, 0); color: rgb(0, 0, 0); font-family: Helvetica; font-size: 12px; font-style: normal; font-variant-caps: normal; font-weight: 400; letter-spacing: normal; orphans: auto; text-align: left; text-indent: 0px; text-transform: none; white-space: normal; widows: auto; word-spacing: 0px; -webkit-text-stroke-width: 0px; text-decoration: none;&quot;&gt;+ TypeICommands( Oscilloscope*, const string&amp;amp;, const string&amp;amp; )&lt;br&gt;&lt;/div&gt;&lt;div style=&quot;caret-color: rgb(0, 0, 0); color: rgb(0, 0, 0); font-family: Helvetica; font-size: 12px; font-style: normal; font-variant-caps: normal; font-weight: 400; letter-spacing: normal; orphans: auto; text-align: left; text-indent: 0px; text-transform: none; white-space: normal; widows: auto; word-spacing: 0px; -webkit-text-stroke-width: 0px; text-decoration: none;&quot;&gt;+ call( const string&amp;amp;, const size_t&amp;amp;, const bool&amp;amp; ) : string&lt;/div&gt;" style="text;spacingLeft=4;spacingRight=4;overflow=hidden;rotatable=0;points=[[0,0.5],[1,0.5]];portConstraint=eastwest;fontSize=12;whiteSpace=wrap;html=1;strokeWidth=1;perimeterSpacing=1;strokeColor=default;" vertex="1" parent="8ycHwIcPBkL53dI1Rve8-8">
          <mxGeometry y="90" width="380" height="40" as="geometry" />
        </mxCell>
        <mxCell id="8ycHwIcPBkL53dI1Rve8-16" value="TypePCommands" style="swimlane;fontStyle=0;childLayout=stackLayout;horizontal=1;startSize=26;horizontalStack=0;resizeParent=1;resizeParentMax=0;resizeLast=0;collapsible=1;marginBottom=0;align=center;fontSize=14;" vertex="1" parent="1">
          <mxGeometry x="40" y="460" width="380" height="220" as="geometry">
            <mxRectangle x="230" y="200" width="170" height="30" as="alternateBounds" />
          </mxGeometry>
        </mxCell>
        <mxCell id="8ycHwIcPBkL53dI1Rve8-17" value="Класс для считывания данных с осциллографа. Структуры данных из STL" style="text;spacingLeft=4;spacingRight=4;overflow=hidden;rotatable=0;points=[[0,0.5],[1,0.5]];portConstraint=eastwest;fontSize=12;whiteSpace=wrap;html=1;strokeWidth=1;perimeterSpacing=1;strokeColor=default;" vertex="1" parent="8ycHwIcPBkL53dI1Rve8-16">
          <mxGeometry y="26" width="380" height="44" as="geometry" />
        </mxCell>
        <mxCell id="8ycHwIcPBkL53dI1Rve8-18" value="&lt;div&gt;-&amp;nbsp;_trig_CHx : uint8_t&lt;/div&gt;-&amp;nbsp;_trig_level : float&lt;div&gt;&lt;div&gt;-&amp;nbsp;_trig_comp : uint8_t&lt;/div&gt;&lt;div&gt;&lt;br&gt;&lt;/div&gt;&lt;div&gt;&lt;br&gt;&lt;/div&gt;&lt;div&gt;&lt;br&gt;&lt;/div&gt;&lt;div&gt;&lt;br&gt;&lt;/div&gt;&lt;/div&gt;" style="text;strokeColor=none;fillColor=none;spacingLeft=4;spacingRight=4;overflow=hidden;rotatable=0;points=[[0,0.5],[1,0.5]];portConstraint=eastwest;fontSize=12;whiteSpace=wrap;html=1;" vertex="1" parent="8ycHwIcPBkL53dI1Rve8-16">
          <mxGeometry y="70" width="380" height="50" as="geometry" />
        </mxCell>
        <mxCell id="8ycHwIcPBkL53dI1Rve8-19" value="&lt;div style=&quot;caret-color: rgb(0, 0, 0); color: rgb(0, 0, 0); font-family: Helvetica; font-size: 12px; font-style: normal; font-variant-caps: normal; font-weight: 400; letter-spacing: normal; orphans: auto; text-align: left; text-indent: 0px; text-transform: none; white-space: normal; widows: auto; word-spacing: 0px; -webkit-text-stroke-width: 0px; text-decoration: none;&quot;&gt;-&amp;nbsp;getRange() : string&lt;/div&gt;&lt;div style=&quot;caret-color: rgb(0, 0, 0); color: rgb(0, 0, 0); font-family: Helvetica; font-size: 12px; font-style: normal; font-variant-caps: normal; font-weight: 400; letter-spacing: normal; orphans: auto; text-align: left; text-indent: 0px; text-transform: none; white-space: normal; widows: auto; word-spacing: 0px; -webkit-text-stroke-width: 0px; text-decoration: none;&quot;&gt;-&amp;nbsp;getPulse( const vector&amp;lt;string&amp;gt;&amp;amp; ) : string&lt;/div&gt;&lt;div style=&quot;caret-color: rgb(0, 0, 0); color: rgb(0, 0, 0); font-family: Helvetica; font-size: 12px; font-style: normal; font-variant-caps: normal; font-weight: 400; letter-spacing: normal; orphans: auto; text-align: left; text-indent: 0px; text-transform: none; white-space: normal; widows: auto; word-spacing: 0px; -webkit-text-stroke-width: 0px; text-decoration: none;&quot;&gt;&lt;div&gt;- pulseOperation( const string&amp;amp;, const size_t&amp;amp; ) : string&lt;/div&gt;&lt;div&gt;- trigOperation( const string&amp;amp;, const size_t&amp;amp; ) : string&lt;/div&gt;&lt;/div&gt;&lt;div style=&quot;caret-color: rgb(0, 0, 0); color: rgb(0, 0, 0); font-family: Helvetica; font-size: 12px; font-style: normal; font-variant-caps: normal; font-weight: 400; letter-spacing: normal; orphans: auto; text-align: left; text-indent: 0px; text-transform: none; white-space: normal; widows: auto; word-spacing: 0px; -webkit-text-stroke-width: 0px; text-decoration: none;&quot;&gt;+ TypePCommands( Oscilloscope*, const string&amp;amp;, const string&amp;amp; )&lt;/div&gt;&lt;div style=&quot;caret-color: rgb(0, 0, 0); color: rgb(0, 0, 0); font-family: Helvetica; font-size: 12px; font-style: normal; font-variant-caps: normal; font-weight: 400; letter-spacing: normal; orphans: auto; text-align: left; text-indent: 0px; text-transform: none; white-space: normal; widows: auto; word-spacing: 0px; -webkit-text-stroke-width: 0px; text-decoration: none;&quot;&gt;+ call( const string&amp;amp;, const size_t&amp;amp;, const bool&amp;amp; ) : string&lt;/div&gt;" style="text;spacingLeft=4;spacingRight=4;overflow=hidden;rotatable=0;points=[[0,0.5],[1,0.5]];portConstraint=eastwest;fontSize=12;whiteSpace=wrap;html=1;strokeWidth=1;perimeterSpacing=1;strokeColor=default;" vertex="1" parent="8ycHwIcPBkL53dI1Rve8-16">
          <mxGeometry y="120" width="380" height="100" as="geometry" />
        </mxCell>
        <mxCell id="8ycHwIcPBkL53dI1Rve8-20" value="TypeSCommands" style="swimlane;fontStyle=0;childLayout=stackLayout;horizontal=1;startSize=26;horizontalStack=0;resizeParent=1;resizeParentMax=0;resizeLast=0;collapsible=1;marginBottom=0;align=center;fontSize=14;" vertex="1" parent="1">
          <mxGeometry x="-380" y="460" width="380" height="170" as="geometry">
            <mxRectangle x="230" y="200" width="170" height="30" as="alternateBounds" />
          </mxGeometry>
        </mxCell>
        <mxCell id="8ycHwIcPBkL53dI1Rve8-21" value="Класс для команд работы с вертикальным уровнем осциллографа. Структуры данных из STL" style="text;spacingLeft=4;spacingRight=4;overflow=hidden;rotatable=0;points=[[0,0.5],[1,0.5]];portConstraint=eastwest;fontSize=12;whiteSpace=wrap;html=1;strokeWidth=1;perimeterSpacing=1;strokeColor=default;" vertex="1" parent="8ycHwIcPBkL53dI1Rve8-20">
          <mxGeometry y="26" width="380" height="44" as="geometry" />
        </mxCell>
        <mxCell id="8ycHwIcPBkL53dI1Rve8-22" value="&lt;div&gt;&lt;br&gt;&lt;/div&gt;" style="text;strokeColor=none;fillColor=none;spacingLeft=4;spacingRight=4;overflow=hidden;rotatable=0;points=[[0,0.5],[1,0.5]];portConstraint=eastwest;fontSize=12;whiteSpace=wrap;html=1;" vertex="1" parent="8ycHwIcPBkL53dI1Rve8-20">
          <mxGeometry y="70" width="380" height="20" as="geometry" />
        </mxCell>
        <mxCell id="8ycHwIcPBkL53dI1Rve8-23" value="&lt;div style=&quot;caret-color: rgb(0, 0, 0); color: rgb(0, 0, 0); font-family: Helvetica; font-size: 12px; font-style: normal; font-variant-caps: normal; font-weight: 400; letter-spacing: normal; orphans: auto; text-align: left; text-indent: 0px; text-transform: none; white-space: normal; widows: auto; word-spacing: 0px; -webkit-text-stroke-width: 0px; text-decoration: none;&quot;&gt;-&amp;nbsp;getRange() : string&lt;br&gt;&lt;/div&gt;&lt;div style=&quot;caret-color: rgb(0, 0, 0); color: rgb(0, 0, 0); font-family: Helvetica; font-size: 12px; font-style: normal; font-variant-caps: normal; font-weight: 400; letter-spacing: normal; orphans: auto; text-align: left; text-indent: 0px; text-transform: none; white-space: normal; widows: auto; word-spacing: 0px; -webkit-text-stroke-width: 0px; text-decoration: none;&quot;&gt;-&amp;nbsp;getCurrent() : string&lt;/div&gt;&lt;div style=&quot;caret-color: rgb(0, 0, 0); color: rgb(0, 0, 0); font-family: Helvetica; font-size: 12px; font-style: normal; font-variant-caps: normal; font-weight: 400; letter-spacing: normal; orphans: auto; text-align: left; text-indent: 0px; text-transform: none; white-space: normal; widows: auto; word-spacing: 0px; -webkit-text-stroke-width: 0px; text-decoration: none;&quot;&gt;-&amp;nbsp;setValue( const vector&amp;lt;string&amp;gt;&amp;amp; ) : string&lt;/div&gt;&lt;div style=&quot;caret-color: rgb(0, 0, 0); color: rgb(0, 0, 0); font-family: Helvetica; font-size: 12px; font-style: normal; font-variant-caps: normal; font-weight: 400; letter-spacing: normal; orphans: auto; text-align: left; text-indent: 0px; text-transform: none; white-space: normal; widows: auto; word-spacing: 0px; -webkit-text-stroke-width: 0px; text-decoration: none;&quot;&gt;+ TypeSCommands( Oscilloscope*, const string&amp;amp;, const string&amp;amp; )&lt;/div&gt;&lt;div style=&quot;caret-color: rgb(0, 0, 0); color: rgb(0, 0, 0); font-family: Helvetica; font-size: 12px; font-style: normal; font-variant-caps: normal; font-weight: 400; letter-spacing: normal; orphans: auto; text-align: left; text-indent: 0px; text-transform: none; white-space: normal; widows: auto; word-spacing: 0px; -webkit-text-stroke-width: 0px; text-decoration: none;&quot;&gt;+ call( const string&amp;amp;, const size_t&amp;amp;, const bool&amp;amp; ) : string&lt;/div&gt;" style="text;spacingLeft=4;spacingRight=4;overflow=hidden;rotatable=0;points=[[0,0.5],[1,0.5]];portConstraint=eastwest;fontSize=12;whiteSpace=wrap;html=1;strokeWidth=1;perimeterSpacing=1;strokeColor=default;" vertex="1" parent="8ycHwIcPBkL53dI1Rve8-20">
          <mxGeometry y="90" width="380" height="80" as="geometry" />
        </mxCell>
        <mxCell id="8ycHwIcPBkL53dI1Rve8-24" value="TypeVCommands" style="swimlane;fontStyle=0;childLayout=stackLayout;horizontal=1;startSize=26;horizontalStack=0;resizeParent=1;resizeParentMax=0;resizeLast=0;collapsible=1;marginBottom=0;align=center;fontSize=14;" vertex="1" parent="1">
          <mxGeometry x="-800" y="460" width="380" height="170" as="geometry">
            <mxRectangle x="230" y="200" width="170" height="30" as="alternateBounds" />
          </mxGeometry>
        </mxCell>
        <mxCell id="8ycHwIcPBkL53dI1Rve8-25" value="Класс для команд работы с уровнем по горизонтали у осциллографа. Структуры данных из STL" style="text;spacingLeft=4;spacingRight=4;overflow=hidden;rotatable=0;points=[[0,0.5],[1,0.5]];portConstraint=eastwest;fontSize=12;whiteSpace=wrap;html=1;strokeWidth=1;perimeterSpacing=1;strokeColor=default;" vertex="1" parent="8ycHwIcPBkL53dI1Rve8-24">
          <mxGeometry y="26" width="380" height="44" as="geometry" />
        </mxCell>
        <mxCell id="8ycHwIcPBkL53dI1Rve8-26" value="&lt;div&gt;&lt;br&gt;&lt;/div&gt;" style="text;strokeColor=none;fillColor=none;spacingLeft=4;spacingRight=4;overflow=hidden;rotatable=0;points=[[0,0.5],[1,0.5]];portConstraint=eastwest;fontSize=12;whiteSpace=wrap;html=1;" vertex="1" parent="8ycHwIcPBkL53dI1Rve8-24">
          <mxGeometry y="70" width="380" height="20" as="geometry" />
        </mxCell>
        <mxCell id="8ycHwIcPBkL53dI1Rve8-27" value="&lt;div style=&quot;caret-color: rgb(0, 0, 0); color: rgb(0, 0, 0); font-family: Helvetica; font-size: 12px; font-style: normal; font-variant-caps: normal; font-weight: 400; letter-spacing: normal; orphans: auto; text-align: left; text-indent: 0px; text-transform: none; white-space: normal; widows: auto; word-spacing: 0px; -webkit-text-stroke-width: 0px; text-decoration: none;&quot;&gt;&lt;div&gt;-&amp;nbsp;getRange() : string&lt;br&gt;&lt;/div&gt;&lt;div&gt;-&amp;nbsp;getCurrent() : string&lt;/div&gt;&lt;div&gt;-&amp;nbsp;setValue( const vector&amp;lt;string&amp;gt;&amp;amp; ) : string&lt;/div&gt;&lt;/div&gt;&lt;div style=&quot;caret-color: rgb(0, 0, 0); color: rgb(0, 0, 0); font-family: Helvetica; font-size: 12px; font-style: normal; font-variant-caps: normal; font-weight: 400; letter-spacing: normal; orphans: auto; text-align: left; text-indent: 0px; text-transform: none; white-space: normal; widows: auto; word-spacing: 0px; -webkit-text-stroke-width: 0px; text-decoration: none;&quot;&gt;+ TypeVCommands( Oscilloscope*, const string&amp;amp;, const string&amp;amp; )&lt;/div&gt;&lt;div style=&quot;caret-color: rgb(0, 0, 0); color: rgb(0, 0, 0); font-family: Helvetica; font-size: 12px; font-style: normal; font-variant-caps: normal; font-weight: 400; letter-spacing: normal; orphans: auto; text-align: left; text-indent: 0px; text-transform: none; white-space: normal; widows: auto; word-spacing: 0px; -webkit-text-stroke-width: 0px; text-decoration: none;&quot;&gt;+ call( const string&amp;amp;, const size_t&amp;amp;, const bool&amp;amp; ) : string&lt;/div&gt;" style="text;spacingLeft=4;spacingRight=4;overflow=hidden;rotatable=0;points=[[0,0.5],[1,0.5]];portConstraint=eastwest;fontSize=12;whiteSpace=wrap;html=1;strokeWidth=1;perimeterSpacing=1;strokeColor=default;" vertex="1" parent="8ycHwIcPBkL53dI1Rve8-24">
          <mxGeometry y="90" width="380" height="80" as="geometry" />
        </mxCell>
        <mxCell id="8ycHwIcPBkL53dI1Rve8-29" style="edgeStyle=orthogonalEdgeStyle;rounded=0;orthogonalLoop=1;jettySize=auto;html=1;entryX=0.417;entryY=0.999;entryDx=0;entryDy=0;entryPerimeter=0;endArrow=block;endFill=0;" edge="1" parent="1" source="8ycHwIcPBkL53dI1Rve8-20" target="8ycHwIcPBkL53dI1Rve8-7">
          <mxGeometry relative="1" as="geometry">
            <Array as="points">
              <mxPoint x="-190" y="440" />
              <mxPoint x="-12" y="440" />
            </Array>
          </mxGeometry>
        </mxCell>
        <mxCell id="8ycHwIcPBkL53dI1Rve8-30" style="edgeStyle=orthogonalEdgeStyle;rounded=0;orthogonalLoop=1;jettySize=auto;html=1;entryX=0.487;entryY=0.999;entryDx=0;entryDy=0;entryPerimeter=0;endArrow=block;endFill=0;" edge="1" parent="1" source="8ycHwIcPBkL53dI1Rve8-16" target="8ycHwIcPBkL53dI1Rve8-7">
          <mxGeometry relative="1" as="geometry">
            <Array as="points">
              <mxPoint x="230" y="440" />
              <mxPoint x="15" y="440" />
            </Array>
          </mxGeometry>
        </mxCell>
        <mxCell id="8ycHwIcPBkL53dI1Rve8-31" style="edgeStyle=orthogonalEdgeStyle;rounded=0;orthogonalLoop=1;jettySize=auto;html=1;entryX=0.548;entryY=0.994;entryDx=0;entryDy=0;entryPerimeter=0;endArrow=block;endFill=0;" edge="1" parent="1" source="8ycHwIcPBkL53dI1Rve8-8" target="8ycHwIcPBkL53dI1Rve8-7">
          <mxGeometry relative="1" as="geometry">
            <Array as="points">
              <mxPoint x="637" y="430" />
              <mxPoint x="38" y="430" />
            </Array>
          </mxGeometry>
        </mxCell>
        <mxCell id="8ycHwIcPBkL53dI1Rve8-32" style="edgeStyle=orthogonalEdgeStyle;rounded=0;orthogonalLoop=1;jettySize=auto;html=1;entryX=0.368;entryY=0.994;entryDx=0;entryDy=0;entryPerimeter=0;endArrow=block;endFill=0;" edge="1" parent="1" source="8ycHwIcPBkL53dI1Rve8-24" target="8ycHwIcPBkL53dI1Rve8-7">
          <mxGeometry relative="1" as="geometry">
            <Array as="points">
              <mxPoint x="-610" y="430" />
              <mxPoint x="-30" y="430" />
            </Array>
          </mxGeometry>
        </mxCell>
        <mxCell id="8ycHwIcPBkL53dI1Rve8-33" value="TypeCommands" style="swimlane;fontStyle=0;childLayout=stackLayout;horizontal=1;startSize=26;horizontalStack=0;resizeParent=1;resizeParentMax=0;resizeLast=0;collapsible=1;marginBottom=0;align=center;fontSize=14;" vertex="1" collapsed="1" parent="1">
          <mxGeometry x="1800" y="80" width="170" height="30" as="geometry">
            <mxRectangle x="1800" y="80" width="380" height="360" as="alternateBounds" />
          </mxGeometry>
        </mxCell>
        <mxCell id="8ycHwIcPBkL53dI1Rve8-34" value="Класс для описания команд для осциллографа. Структуры данных из STL" style="text;spacingLeft=4;spacingRight=4;overflow=hidden;rotatable=0;points=[[0,0.5],[1,0.5]];portConstraint=eastwest;fontSize=12;whiteSpace=wrap;html=1;strokeWidth=1;perimeterSpacing=1;strokeColor=default;" vertex="1" parent="8ycHwIcPBkL53dI1Rve8-33">
          <mxGeometry y="26" width="380" height="44" as="geometry" />
        </mxCell>
        <mxCell id="8ycHwIcPBkL53dI1Rve8-35" value="&lt;div&gt;-&amp;nbsp;_oscilloscope :&amp;nbsp;Oscilloscope*&lt;/div&gt;- _PREFIX : string&lt;div&gt;&lt;div&gt;-&amp;nbsp;_COMMAND : string&lt;/div&gt;&lt;div&gt;&lt;br&gt;&lt;/div&gt;&lt;div&gt;&lt;br&gt;&lt;/div&gt;&lt;div&gt;&lt;br&gt;&lt;/div&gt;&lt;div&gt;&lt;br&gt;&lt;/div&gt;&lt;/div&gt;" style="text;strokeColor=none;fillColor=none;spacingLeft=4;spacingRight=4;overflow=hidden;rotatable=0;points=[[0,0.5],[1,0.5]];portConstraint=eastwest;fontSize=12;whiteSpace=wrap;html=1;" vertex="1" parent="8ycHwIcPBkL53dI1Rve8-33">
          <mxGeometry y="70" width="380" height="50" as="geometry" />
        </mxCell>
        <mxCell id="8ycHwIcPBkL53dI1Rve8-36" value="&lt;div style=&quot;caret-color: rgb(0, 0, 0); color: rgb(0, 0, 0); font-family: Helvetica; font-size: 12px; font-style: normal; font-variant-caps: normal; font-weight: 400; letter-spacing: normal; orphans: auto; text-align: left; text-indent: 0px; text-transform: none; white-space: normal; widows: auto; word-spacing: 0px; -webkit-text-stroke-width: 0px; text-decoration: none;&quot;&gt;- parseContent( const string&amp;amp;, const size_t&amp;amp;, const size_t&amp;amp; ) : pair&amp;lt;vector&amp;lt;string&amp;gt;, size_t&amp;gt;&lt;/div&gt;&lt;div style=&quot;caret-color: rgb(0, 0, 0); color: rgb(0, 0, 0); font-family: Helvetica; font-size: 12px; font-style: normal; font-variant-caps: normal; font-weight: 400; letter-spacing: normal; orphans: auto; text-align: left; text-indent: 0px; text-transform: none; white-space: normal; widows: auto; word-spacing: 0px; -webkit-text-stroke-width: 0px; text-decoration: none;&quot;&gt;- sendToSock( const int&amp;amp;, const string&amp;amp; )&lt;/div&gt;&lt;div style=&quot;caret-color: rgb(0, 0, 0); color: rgb(0, 0, 0); font-family: Helvetica; font-size: 12px; font-style: normal; font-variant-caps: normal; font-weight: 400; letter-spacing: normal; orphans: auto; text-align: left; text-indent: 0px; text-transform: none; white-space: normal; widows: auto; word-spacing: 0px; -webkit-text-stroke-width: 0px; text-decoration: none;&quot;&gt;- getErrorMessage( const string&amp;amp;, const exception&amp;amp; ) : string&lt;/div&gt;&lt;div style=&quot;caret-color: rgb(0, 0, 0); color: rgb(0, 0, 0); font-family: Helvetica; font-size: 12px; font-style: normal; font-variant-caps: normal; font-weight: 400; letter-spacing: normal; orphans: auto; text-align: left; text-indent: 0px; text-transform: none; white-space: normal; widows: auto; word-spacing: 0px; -webkit-text-stroke-width: 0px; text-decoration: none;&quot;&gt;- getErrorMessage( const string&amp;amp;, const string&amp;amp; ) : string&lt;/div&gt;&lt;div style=&quot;caret-color: rgb(0, 0, 0); color: rgb(0, 0, 0); font-family: Helvetica; font-size: 12px; font-style: normal; font-variant-caps: normal; font-weight: 400; letter-spacing: normal; orphans: auto; text-align: left; text-indent: 0px; text-transform: none; white-space: normal; widows: auto; word-spacing: 0px; -webkit-text-stroke-width: 0px; text-decoration: none;&quot;&gt;- getErrorMessage( const string&amp;amp;, const int&amp;amp; ) : string&lt;/div&gt;&lt;div style=&quot;caret-color: rgb(0, 0, 0); color: rgb(0, 0, 0); font-family: Helvetica; font-size: 12px; font-style: normal; font-variant-caps: normal; font-weight: 400; letter-spacing: normal; orphans: auto; text-align: left; text-indent: 0px; text-transform: none; white-space: normal; widows: auto; word-spacing: 0px; -webkit-text-stroke-width: 0px; text-decoration: none;&quot;&gt;- getErrorMessage() : string&lt;br&gt;&lt;/div&gt;&lt;div style=&quot;caret-color: rgb(0, 0, 0); color: rgb(0, 0, 0); font-family: Helvetica; font-size: 12px; font-style: normal; font-variant-caps: normal; font-weight: 400; letter-spacing: normal; orphans: auto; text-align: left; text-indent: 0px; text-transform: none; white-space: normal; widows: auto; word-spacing: 0px; -webkit-text-stroke-width: 0px; text-decoration: none;&quot;&gt;- getErrorUnknownMessage() : string&lt;br&gt;&lt;/div&gt;&lt;div style=&quot;caret-color: rgb(0, 0, 0); color: rgb(0, 0, 0); font-family: Helvetica; font-size: 12px; font-style: normal; font-variant-caps: normal; font-weight: 400; letter-spacing: normal; orphans: auto; text-align: left; text-indent: 0px; text-transform: none; white-space: normal; widows: auto; word-spacing: 0px; -webkit-text-stroke-width: 0px; text-decoration: none;&quot;&gt;- getSuccessMessage( const size_t&amp;amp; ) : string&lt;br&gt;&lt;/div&gt;&lt;div style=&quot;caret-color: rgb(0, 0, 0); color: rgb(0, 0, 0); font-family: Helvetica; font-size: 12px; font-style: normal; font-variant-caps: normal; font-weight: 400; letter-spacing: normal; orphans: auto; text-align: left; text-indent: 0px; text-transform: none; white-space: normal; widows: auto; word-spacing: 0px; -webkit-text-stroke-width: 0px; text-decoration: none;&quot;&gt;- getSuccessMessage( const string&amp;amp; ) : string&lt;/div&gt;&lt;div style=&quot;caret-color: rgb(0, 0, 0); color: rgb(0, 0, 0); font-family: Helvetica; font-size: 12px; font-style: normal; font-variant-caps: normal; font-weight: 400; letter-spacing: normal; orphans: auto; text-align: left; text-indent: 0px; text-transform: none; white-space: normal; widows: auto; word-spacing: 0px; -webkit-text-stroke-width: 0px; text-decoration: none;&quot;&gt;- getSuccessMessage( const string&amp;amp;, const vector&amp;lt;string&amp;gt;&amp;amp; ) : string&lt;/div&gt;&lt;div style=&quot;caret-color: rgb(0, 0, 0); color: rgb(0, 0, 0); font-family: Helvetica; font-size: 12px; font-style: normal; font-variant-caps: normal; font-weight: 400; letter-spacing: normal; orphans: auto; text-align: left; text-indent: 0px; text-transform: none; white-space: normal; widows: auto; word-spacing: 0px; -webkit-text-stroke-width: 0px; text-decoration: none;&quot;&gt;- getSuccessMessage( const vector&amp;lt;size_t&amp;gt;&amp;amp; ) : string&lt;/div&gt;&lt;div style=&quot;caret-color: rgb(0, 0, 0); color: rgb(0, 0, 0); font-family: Helvetica; font-size: 12px; font-style: normal; font-variant-caps: normal; font-weight: 400; letter-spacing: normal; orphans: auto; text-align: left; text-indent: 0px; text-transform: none; white-space: normal; widows: auto; word-spacing: 0px; -webkit-text-stroke-width: 0px; text-decoration: none;&quot;&gt;- getSuccessMessage( const vector&amp;lt;float&amp;gt;&amp;amp; ) : string&lt;/div&gt;&lt;div style=&quot;caret-color: rgb(0, 0, 0); color: rgb(0, 0, 0); font-family: Helvetica; font-size: 12px; font-style: normal; font-variant-caps: normal; font-weight: 400; letter-spacing: normal; orphans: auto; text-align: left; text-indent: 0px; text-transform: none; white-space: normal; widows: auto; word-spacing: 0px; -webkit-text-stroke-width: 0px; text-decoration: none;&quot;&gt;- getSuccessMessage() : string&lt;/div&gt;&lt;div style=&quot;caret-color: rgb(0, 0, 0); color: rgb(0, 0, 0); font-family: Helvetica; font-size: 12px; font-style: normal; font-variant-caps: normal; font-weight: 400; letter-spacing: normal; orphans: auto; text-align: left; text-indent: 0px; text-transform: none; white-space: normal; widows: auto; word-spacing: 0px; -webkit-text-stroke-width: 0px; text-decoration: none;&quot;&gt;+ TypeCommands( Oscilloscope*, const string&amp;amp;, const string&amp;amp; )&lt;/div&gt;&lt;div style=&quot;caret-color: rgb(0, 0, 0); color: rgb(0, 0, 0); font-family: Helvetica; font-size: 12px; font-style: normal; font-variant-caps: normal; font-weight: 400; letter-spacing: normal; orphans: auto; text-align: left; text-indent: 0px; text-transform: none; white-space: normal; widows: auto; word-spacing: 0px; -webkit-text-stroke-width: 0px; text-decoration: none;&quot;&gt;+ call( const string&amp;amp;, const size_t&amp;amp;, const bool&amp;amp; ) : string&lt;/div&gt;" style="text;spacingLeft=4;spacingRight=4;overflow=hidden;rotatable=0;points=[[0,0.5],[1,0.5]];portConstraint=eastwest;fontSize=12;whiteSpace=wrap;html=1;strokeWidth=1;perimeterSpacing=1;strokeColor=default;" vertex="1" parent="8ycHwIcPBkL53dI1Rve8-33">
          <mxGeometry y="120" width="380" height="240" as="geometry" />
        </mxCell>
        <mxCell id="8ycHwIcPBkL53dI1Rve8-58" style="edgeStyle=orthogonalEdgeStyle;rounded=0;orthogonalLoop=1;jettySize=auto;html=1;endArrow=block;endFill=0;exitX=0.471;exitY=0;exitDx=0;exitDy=0;exitPerimeter=0;" edge="1" parent="1" source="8ycHwIcPBkL53dI1Rve8-37">
          <mxGeometry relative="1" as="geometry">
            <mxPoint x="1900" y="110" as="targetPoint" />
            <Array as="points">
              <mxPoint x="1970" y="150" />
              <mxPoint x="1900" y="150" />
            </Array>
          </mxGeometry>
        </mxCell>
        <mxCell id="8ycHwIcPBkL53dI1Rve8-37" value="TypeICommands" style="swimlane;fontStyle=0;childLayout=stackLayout;horizontal=1;startSize=26;horizontalStack=0;resizeParent=1;resizeParentMax=0;resizeLast=0;collapsible=1;marginBottom=0;align=center;fontSize=14;" vertex="1" collapsed="1" parent="1">
          <mxGeometry x="1890" y="170" width="170" height="30" as="geometry">
            <mxRectangle x="2417" y="490" width="380" height="130" as="alternateBounds" />
          </mxGeometry>
        </mxCell>
        <mxCell id="8ycHwIcPBkL53dI1Rve8-38" value="Класс для команд получения информации о осциллографа.&amp;nbsp;&amp;nbsp;Структуры данных из STL" style="text;spacingLeft=4;spacingRight=4;overflow=hidden;rotatable=0;points=[[0,0.5],[1,0.5]];portConstraint=eastwest;fontSize=12;whiteSpace=wrap;html=1;strokeWidth=1;perimeterSpacing=1;strokeColor=default;" vertex="1" parent="8ycHwIcPBkL53dI1Rve8-37">
          <mxGeometry y="26" width="380" height="44" as="geometry" />
        </mxCell>
        <mxCell id="8ycHwIcPBkL53dI1Rve8-39" value="&lt;div&gt;&lt;br&gt;&lt;/div&gt;&lt;div&gt;&lt;div&gt;&lt;br&gt;&lt;/div&gt;&lt;div&gt;&lt;br&gt;&lt;/div&gt;&lt;/div&gt;" style="text;strokeColor=none;fillColor=none;spacingLeft=4;spacingRight=4;overflow=hidden;rotatable=0;points=[[0,0.5],[1,0.5]];portConstraint=eastwest;fontSize=12;whiteSpace=wrap;html=1;" vertex="1" parent="8ycHwIcPBkL53dI1Rve8-37">
          <mxGeometry y="70" width="380" height="20" as="geometry" />
        </mxCell>
        <mxCell id="8ycHwIcPBkL53dI1Rve8-40" value="&lt;div style=&quot;caret-color: rgb(0, 0, 0); color: rgb(0, 0, 0); font-family: Helvetica; font-size: 12px; font-style: normal; font-variant-caps: normal; font-weight: 400; letter-spacing: normal; orphans: auto; text-align: left; text-indent: 0px; text-transform: none; white-space: normal; widows: auto; word-spacing: 0px; -webkit-text-stroke-width: 0px; text-decoration: none;&quot;&gt;+ TypeICommands( Oscilloscope*, const string&amp;amp;, const string&amp;amp; )&lt;br&gt;&lt;/div&gt;&lt;div style=&quot;caret-color: rgb(0, 0, 0); color: rgb(0, 0, 0); font-family: Helvetica; font-size: 12px; font-style: normal; font-variant-caps: normal; font-weight: 400; letter-spacing: normal; orphans: auto; text-align: left; text-indent: 0px; text-transform: none; white-space: normal; widows: auto; word-spacing: 0px; -webkit-text-stroke-width: 0px; text-decoration: none;&quot;&gt;+ call( const string&amp;amp;, const size_t&amp;amp;, const bool&amp;amp; ) : string&lt;/div&gt;" style="text;spacingLeft=4;spacingRight=4;overflow=hidden;rotatable=0;points=[[0,0.5],[1,0.5]];portConstraint=eastwest;fontSize=12;whiteSpace=wrap;html=1;strokeWidth=1;perimeterSpacing=1;strokeColor=default;" vertex="1" parent="8ycHwIcPBkL53dI1Rve8-37">
          <mxGeometry y="90" width="380" height="40" as="geometry" />
        </mxCell>
        <mxCell id="8ycHwIcPBkL53dI1Rve8-59" style="edgeStyle=orthogonalEdgeStyle;rounded=0;orthogonalLoop=1;jettySize=auto;html=1;endArrow=block;endFill=0;exitX=0.471;exitY=0;exitDx=0;exitDy=0;exitPerimeter=0;" edge="1" parent="1" source="8ycHwIcPBkL53dI1Rve8-41">
          <mxGeometry relative="1" as="geometry">
            <mxPoint x="1920" y="110" as="targetPoint" />
            <Array as="points">
              <mxPoint x="2160" y="130" />
              <mxPoint x="1920" y="130" />
            </Array>
          </mxGeometry>
        </mxCell>
        <mxCell id="8ycHwIcPBkL53dI1Rve8-41" value="TypePCommands" style="swimlane;fontStyle=0;childLayout=stackLayout;horizontal=1;startSize=26;horizontalStack=0;resizeParent=1;resizeParentMax=0;resizeLast=0;collapsible=1;marginBottom=0;align=center;fontSize=14;" vertex="1" collapsed="1" parent="1">
          <mxGeometry x="2080" y="170" width="170" height="30" as="geometry">
            <mxRectangle x="2010" y="490" width="380" height="220" as="alternateBounds" />
          </mxGeometry>
        </mxCell>
        <mxCell id="8ycHwIcPBkL53dI1Rve8-42" value="Класс для считывания данных с осциллографа. Структуры данных из STL" style="text;spacingLeft=4;spacingRight=4;overflow=hidden;rotatable=0;points=[[0,0.5],[1,0.5]];portConstraint=eastwest;fontSize=12;whiteSpace=wrap;html=1;strokeWidth=1;perimeterSpacing=1;strokeColor=default;" vertex="1" parent="8ycHwIcPBkL53dI1Rve8-41">
          <mxGeometry y="26" width="380" height="44" as="geometry" />
        </mxCell>
        <mxCell id="8ycHwIcPBkL53dI1Rve8-43" value="&lt;div&gt;-&amp;nbsp;_trig_CHx : uint8_t&lt;/div&gt;-&amp;nbsp;_trig_level : float&lt;div&gt;&lt;div&gt;-&amp;nbsp;_trig_comp : uint8_t&lt;/div&gt;&lt;div&gt;&lt;br&gt;&lt;/div&gt;&lt;div&gt;&lt;br&gt;&lt;/div&gt;&lt;div&gt;&lt;br&gt;&lt;/div&gt;&lt;div&gt;&lt;br&gt;&lt;/div&gt;&lt;/div&gt;" style="text;strokeColor=none;fillColor=none;spacingLeft=4;spacingRight=4;overflow=hidden;rotatable=0;points=[[0,0.5],[1,0.5]];portConstraint=eastwest;fontSize=12;whiteSpace=wrap;html=1;" vertex="1" parent="8ycHwIcPBkL53dI1Rve8-41">
          <mxGeometry y="70" width="380" height="50" as="geometry" />
        </mxCell>
        <mxCell id="8ycHwIcPBkL53dI1Rve8-44" value="&lt;div style=&quot;caret-color: rgb(0, 0, 0); color: rgb(0, 0, 0); font-family: Helvetica; font-size: 12px; font-style: normal; font-variant-caps: normal; font-weight: 400; letter-spacing: normal; orphans: auto; text-align: left; text-indent: 0px; text-transform: none; white-space: normal; widows: auto; word-spacing: 0px; -webkit-text-stroke-width: 0px; text-decoration: none;&quot;&gt;-&amp;nbsp;getRange() : string&lt;/div&gt;&lt;div style=&quot;caret-color: rgb(0, 0, 0); color: rgb(0, 0, 0); font-family: Helvetica; font-size: 12px; font-style: normal; font-variant-caps: normal; font-weight: 400; letter-spacing: normal; orphans: auto; text-align: left; text-indent: 0px; text-transform: none; white-space: normal; widows: auto; word-spacing: 0px; -webkit-text-stroke-width: 0px; text-decoration: none;&quot;&gt;-&amp;nbsp;getPulse( const vector&amp;lt;string&amp;gt;&amp;amp; ) : string&lt;/div&gt;&lt;div style=&quot;caret-color: rgb(0, 0, 0); color: rgb(0, 0, 0); font-family: Helvetica; font-size: 12px; font-style: normal; font-variant-caps: normal; font-weight: 400; letter-spacing: normal; orphans: auto; text-align: left; text-indent: 0px; text-transform: none; white-space: normal; widows: auto; word-spacing: 0px; -webkit-text-stroke-width: 0px; text-decoration: none;&quot;&gt;&lt;div&gt;- pulseOperation( const string&amp;amp;, const size_t&amp;amp; ) : string&lt;/div&gt;&lt;div&gt;- trigOperation( const string&amp;amp;, const size_t&amp;amp; ) : string&lt;/div&gt;&lt;/div&gt;&lt;div style=&quot;caret-color: rgb(0, 0, 0); color: rgb(0, 0, 0); font-family: Helvetica; font-size: 12px; font-style: normal; font-variant-caps: normal; font-weight: 400; letter-spacing: normal; orphans: auto; text-align: left; text-indent: 0px; text-transform: none; white-space: normal; widows: auto; word-spacing: 0px; -webkit-text-stroke-width: 0px; text-decoration: none;&quot;&gt;+ TypePCommands( Oscilloscope*, const string&amp;amp;, const string&amp;amp; )&lt;/div&gt;&lt;div style=&quot;caret-color: rgb(0, 0, 0); color: rgb(0, 0, 0); font-family: Helvetica; font-size: 12px; font-style: normal; font-variant-caps: normal; font-weight: 400; letter-spacing: normal; orphans: auto; text-align: left; text-indent: 0px; text-transform: none; white-space: normal; widows: auto; word-spacing: 0px; -webkit-text-stroke-width: 0px; text-decoration: none;&quot;&gt;+ call( const string&amp;amp;, const size_t&amp;amp;, const bool&amp;amp; ) : string&lt;/div&gt;" style="text;spacingLeft=4;spacingRight=4;overflow=hidden;rotatable=0;points=[[0,0.5],[1,0.5]];portConstraint=eastwest;fontSize=12;whiteSpace=wrap;html=1;strokeWidth=1;perimeterSpacing=1;strokeColor=default;" vertex="1" parent="8ycHwIcPBkL53dI1Rve8-41">
          <mxGeometry y="120" width="380" height="100" as="geometry" />
        </mxCell>
        <mxCell id="8ycHwIcPBkL53dI1Rve8-57" style="edgeStyle=orthogonalEdgeStyle;rounded=0;orthogonalLoop=1;jettySize=auto;html=1;endArrow=block;endFill=0;exitX=0.5;exitY=0;exitDx=0;exitDy=0;" edge="1" parent="1" source="8ycHwIcPBkL53dI1Rve8-45">
          <mxGeometry relative="1" as="geometry">
            <mxPoint x="1870" y="110" as="targetPoint" />
            <Array as="points">
              <mxPoint x="1785" y="150" />
              <mxPoint x="1870" y="150" />
            </Array>
          </mxGeometry>
        </mxCell>
        <mxCell id="8ycHwIcPBkL53dI1Rve8-45" value="TypeSCommands" style="swimlane;fontStyle=0;childLayout=stackLayout;horizontal=1;startSize=26;horizontalStack=0;resizeParent=1;resizeParentMax=0;resizeLast=0;collapsible=1;marginBottom=0;align=center;fontSize=14;" vertex="1" collapsed="1" parent="1">
          <mxGeometry x="1700" y="170" width="170" height="30" as="geometry">
            <mxRectangle x="1590" y="490" width="380" height="170" as="alternateBounds" />
          </mxGeometry>
        </mxCell>
        <mxCell id="8ycHwIcPBkL53dI1Rve8-46" value="Класс для команд работы с вертикальным уровнем осциллографа. Структуры данных из STL" style="text;spacingLeft=4;spacingRight=4;overflow=hidden;rotatable=0;points=[[0,0.5],[1,0.5]];portConstraint=eastwest;fontSize=12;whiteSpace=wrap;html=1;strokeWidth=1;perimeterSpacing=1;strokeColor=default;" vertex="1" parent="8ycHwIcPBkL53dI1Rve8-45">
          <mxGeometry y="26" width="380" height="44" as="geometry" />
        </mxCell>
        <mxCell id="8ycHwIcPBkL53dI1Rve8-47" value="&lt;div&gt;&lt;br&gt;&lt;/div&gt;" style="text;strokeColor=none;fillColor=none;spacingLeft=4;spacingRight=4;overflow=hidden;rotatable=0;points=[[0,0.5],[1,0.5]];portConstraint=eastwest;fontSize=12;whiteSpace=wrap;html=1;" vertex="1" parent="8ycHwIcPBkL53dI1Rve8-45">
          <mxGeometry y="70" width="380" height="20" as="geometry" />
        </mxCell>
        <mxCell id="8ycHwIcPBkL53dI1Rve8-48" value="&lt;div style=&quot;caret-color: rgb(0, 0, 0); color: rgb(0, 0, 0); font-family: Helvetica; font-size: 12px; font-style: normal; font-variant-caps: normal; font-weight: 400; letter-spacing: normal; orphans: auto; text-align: left; text-indent: 0px; text-transform: none; white-space: normal; widows: auto; word-spacing: 0px; -webkit-text-stroke-width: 0px; text-decoration: none;&quot;&gt;-&amp;nbsp;getRange() : string&lt;br&gt;&lt;/div&gt;&lt;div style=&quot;caret-color: rgb(0, 0, 0); color: rgb(0, 0, 0); font-family: Helvetica; font-size: 12px; font-style: normal; font-variant-caps: normal; font-weight: 400; letter-spacing: normal; orphans: auto; text-align: left; text-indent: 0px; text-transform: none; white-space: normal; widows: auto; word-spacing: 0px; -webkit-text-stroke-width: 0px; text-decoration: none;&quot;&gt;-&amp;nbsp;getCurrent() : string&lt;/div&gt;&lt;div style=&quot;caret-color: rgb(0, 0, 0); color: rgb(0, 0, 0); font-family: Helvetica; font-size: 12px; font-style: normal; font-variant-caps: normal; font-weight: 400; letter-spacing: normal; orphans: auto; text-align: left; text-indent: 0px; text-transform: none; white-space: normal; widows: auto; word-spacing: 0px; -webkit-text-stroke-width: 0px; text-decoration: none;&quot;&gt;-&amp;nbsp;setValue( const vector&amp;lt;string&amp;gt;&amp;amp; ) : string&lt;/div&gt;&lt;div style=&quot;caret-color: rgb(0, 0, 0); color: rgb(0, 0, 0); font-family: Helvetica; font-size: 12px; font-style: normal; font-variant-caps: normal; font-weight: 400; letter-spacing: normal; orphans: auto; text-align: left; text-indent: 0px; text-transform: none; white-space: normal; widows: auto; word-spacing: 0px; -webkit-text-stroke-width: 0px; text-decoration: none;&quot;&gt;+ TypeSCommands( Oscilloscope*, const string&amp;amp;, const string&amp;amp; )&lt;/div&gt;&lt;div style=&quot;caret-color: rgb(0, 0, 0); color: rgb(0, 0, 0); font-family: Helvetica; font-size: 12px; font-style: normal; font-variant-caps: normal; font-weight: 400; letter-spacing: normal; orphans: auto; text-align: left; text-indent: 0px; text-transform: none; white-space: normal; widows: auto; word-spacing: 0px; -webkit-text-stroke-width: 0px; text-decoration: none;&quot;&gt;+ call( const string&amp;amp;, const size_t&amp;amp;, const bool&amp;amp; ) : string&lt;/div&gt;" style="text;spacingLeft=4;spacingRight=4;overflow=hidden;rotatable=0;points=[[0,0.5],[1,0.5]];portConstraint=eastwest;fontSize=12;whiteSpace=wrap;html=1;strokeWidth=1;perimeterSpacing=1;strokeColor=default;" vertex="1" parent="8ycHwIcPBkL53dI1Rve8-45">
          <mxGeometry y="90" width="380" height="80" as="geometry" />
        </mxCell>
        <mxCell id="8ycHwIcPBkL53dI1Rve8-60" style="edgeStyle=orthogonalEdgeStyle;rounded=0;orthogonalLoop=1;jettySize=auto;html=1;endArrow=block;endFill=0;exitX=0.5;exitY=0;exitDx=0;exitDy=0;" edge="1" parent="1" source="8ycHwIcPBkL53dI1Rve8-49">
          <mxGeometry relative="1" as="geometry">
            <mxPoint x="1850" y="110" as="targetPoint" />
            <Array as="points">
              <mxPoint x="1605" y="130" />
              <mxPoint x="1850" y="130" />
            </Array>
          </mxGeometry>
        </mxCell>
        <mxCell id="8ycHwIcPBkL53dI1Rve8-49" value="TypeVCommands" style="swimlane;fontStyle=0;childLayout=stackLayout;horizontal=1;startSize=26;horizontalStack=0;resizeParent=1;resizeParentMax=0;resizeLast=0;collapsible=1;marginBottom=0;align=center;fontSize=14;" vertex="1" collapsed="1" parent="1">
          <mxGeometry x="1520" y="170" width="170" height="30" as="geometry">
            <mxRectangle x="1170" y="490" width="380" height="170" as="alternateBounds" />
          </mxGeometry>
        </mxCell>
        <mxCell id="8ycHwIcPBkL53dI1Rve8-50" value="Класс для команд работы с уровнем по горизонтали у осциллографа. Структуры данных из STL" style="text;spacingLeft=4;spacingRight=4;overflow=hidden;rotatable=0;points=[[0,0.5],[1,0.5]];portConstraint=eastwest;fontSize=12;whiteSpace=wrap;html=1;strokeWidth=1;perimeterSpacing=1;strokeColor=default;" vertex="1" parent="8ycHwIcPBkL53dI1Rve8-49">
          <mxGeometry y="26" width="380" height="44" as="geometry" />
        </mxCell>
        <mxCell id="8ycHwIcPBkL53dI1Rve8-51" value="&lt;div&gt;&lt;br&gt;&lt;/div&gt;" style="text;strokeColor=none;fillColor=none;spacingLeft=4;spacingRight=4;overflow=hidden;rotatable=0;points=[[0,0.5],[1,0.5]];portConstraint=eastwest;fontSize=12;whiteSpace=wrap;html=1;" vertex="1" parent="8ycHwIcPBkL53dI1Rve8-49">
          <mxGeometry y="70" width="380" height="20" as="geometry" />
        </mxCell>
        <mxCell id="8ycHwIcPBkL53dI1Rve8-52" value="&lt;div style=&quot;caret-color: rgb(0, 0, 0); color: rgb(0, 0, 0); font-family: Helvetica; font-size: 12px; font-style: normal; font-variant-caps: normal; font-weight: 400; letter-spacing: normal; orphans: auto; text-align: left; text-indent: 0px; text-transform: none; white-space: normal; widows: auto; word-spacing: 0px; -webkit-text-stroke-width: 0px; text-decoration: none;&quot;&gt;&lt;div&gt;-&amp;nbsp;getRange() : string&lt;br&gt;&lt;/div&gt;&lt;div&gt;-&amp;nbsp;getCurrent() : string&lt;/div&gt;&lt;div&gt;-&amp;nbsp;setValue( const vector&amp;lt;string&amp;gt;&amp;amp; ) : string&lt;/div&gt;&lt;/div&gt;&lt;div style=&quot;caret-color: rgb(0, 0, 0); color: rgb(0, 0, 0); font-family: Helvetica; font-size: 12px; font-style: normal; font-variant-caps: normal; font-weight: 400; letter-spacing: normal; orphans: auto; text-align: left; text-indent: 0px; text-transform: none; white-space: normal; widows: auto; word-spacing: 0px; -webkit-text-stroke-width: 0px; text-decoration: none;&quot;&gt;+ TypeVCommands( Oscilloscope*, const string&amp;amp;, const string&amp;amp; )&lt;/div&gt;&lt;div style=&quot;caret-color: rgb(0, 0, 0); color: rgb(0, 0, 0); font-family: Helvetica; font-size: 12px; font-style: normal; font-variant-caps: normal; font-weight: 400; letter-spacing: normal; orphans: auto; text-align: left; text-indent: 0px; text-transform: none; white-space: normal; widows: auto; word-spacing: 0px; -webkit-text-stroke-width: 0px; text-decoration: none;&quot;&gt;+ call( const string&amp;amp;, const size_t&amp;amp;, const bool&amp;amp; ) : string&lt;/div&gt;" style="text;spacingLeft=4;spacingRight=4;overflow=hidden;rotatable=0;points=[[0,0.5],[1,0.5]];portConstraint=eastwest;fontSize=12;whiteSpace=wrap;html=1;strokeWidth=1;perimeterSpacing=1;strokeColor=default;" vertex="1" parent="8ycHwIcPBkL53dI1Rve8-49">
          <mxGeometry y="90" width="380" height="80" as="geometry" />
        </mxCell>
        <mxCell id="8ycHwIcPBkL53dI1Rve8-69" style="edgeStyle=orthogonalEdgeStyle;rounded=0;orthogonalLoop=1;jettySize=auto;html=1;endArrow=diamondThin;endFill=1;" edge="1" parent="1" source="8ycHwIcPBkL53dI1Rve8-61" target="8ycHwIcPBkL53dI1Rve8-20">
          <mxGeometry relative="1" as="geometry">
            <Array as="points">
              <mxPoint x="20" y="700" />
              <mxPoint x="-190" y="700" />
            </Array>
          </mxGeometry>
        </mxCell>
        <mxCell id="8ycHwIcPBkL53dI1Rve8-70" style="edgeStyle=orthogonalEdgeStyle;rounded=0;orthogonalLoop=1;jettySize=auto;html=1;endArrow=diamondThin;endFill=1;" edge="1" parent="1" source="8ycHwIcPBkL53dI1Rve8-61" target="8ycHwIcPBkL53dI1Rve8-24">
          <mxGeometry relative="1" as="geometry">
            <Array as="points">
              <mxPoint x="20" y="700" />
              <mxPoint x="-610" y="700" />
            </Array>
          </mxGeometry>
        </mxCell>
        <mxCell id="8ycHwIcPBkL53dI1Rve8-71" style="edgeStyle=orthogonalEdgeStyle;rounded=0;orthogonalLoop=1;jettySize=auto;html=1;endArrow=diamondThin;endFill=1;" edge="1" parent="1" source="8ycHwIcPBkL53dI1Rve8-61" target="8ycHwIcPBkL53dI1Rve8-16">
          <mxGeometry relative="1" as="geometry">
            <Array as="points">
              <mxPoint x="20" y="700" />
              <mxPoint x="230" y="700" />
            </Array>
          </mxGeometry>
        </mxCell>
        <mxCell id="8ycHwIcPBkL53dI1Rve8-72" style="edgeStyle=orthogonalEdgeStyle;rounded=0;orthogonalLoop=1;jettySize=auto;html=1;endArrow=diamondThin;endFill=1;" edge="1" parent="1" source="8ycHwIcPBkL53dI1Rve8-61" target="8ycHwIcPBkL53dI1Rve8-8">
          <mxGeometry relative="1" as="geometry">
            <Array as="points">
              <mxPoint x="20" y="700" />
              <mxPoint x="637" y="700" />
            </Array>
          </mxGeometry>
        </mxCell>
        <mxCell id="8ycHwIcPBkL53dI1Rve8-61" value="CommandDecoder" style="swimlane;fontStyle=0;childLayout=stackLayout;horizontal=1;startSize=26;horizontalStack=0;resizeParent=1;resizeParentMax=0;resizeLast=0;collapsible=1;marginBottom=0;align=center;fontSize=14;" vertex="1" parent="1">
          <mxGeometry x="-150" y="730" width="340" height="220" as="geometry">
            <mxRectangle x="230" y="200" width="170" height="30" as="alternateBounds" />
          </mxGeometry>
        </mxCell>
        <mxCell id="8ycHwIcPBkL53dI1Rve8-62" value="Класс декодирующий команды" style="text;spacingLeft=4;spacingRight=4;overflow=hidden;rotatable=0;points=[[0,0.5],[1,0.5]];portConstraint=eastwest;fontSize=12;whiteSpace=wrap;html=1;strokeWidth=1;perimeterSpacing=1;strokeColor=default;" vertex="1" parent="8ycHwIcPBkL53dI1Rve8-61">
          <mxGeometry y="26" width="340" height="24" as="geometry" />
        </mxCell>
        <mxCell id="8ycHwIcPBkL53dI1Rve8-63" value="&lt;div&gt;- _prefix : const string&lt;/div&gt;&lt;div&gt;- _tvc :&amp;nbsp;TypeVCommands&lt;/div&gt;&lt;div&gt;- _tsc :&amp;nbsp;TypeSCommands&lt;/div&gt;&lt;div&gt;- _tic :&amp;nbsp;TypeICommands&lt;/div&gt;&lt;div&gt;- _tpc :&amp;nbsp;TypePCommands&lt;/div&gt;" style="text;strokeColor=none;fillColor=none;spacingLeft=4;spacingRight=4;overflow=hidden;rotatable=0;points=[[0,0.5],[1,0.5]];portConstraint=eastwest;fontSize=12;whiteSpace=wrap;html=1;" vertex="1" parent="8ycHwIcPBkL53dI1Rve8-61">
          <mxGeometry y="50" width="340" height="90" as="geometry" />
        </mxCell>
        <mxCell id="8ycHwIcPBkL53dI1Rve8-64" value="&lt;div style=&quot;caret-color: rgb(0, 0, 0); color: rgb(0, 0, 0); font-family: Helvetica; font-size: 12px; font-style: normal; font-variant-caps: normal; font-weight: 400; letter-spacing: normal; orphans: auto; text-align: left; text-indent: 0px; text-transform: none; white-space: normal; widows: auto; word-spacing: 0px; -webkit-text-stroke-width: 0px; text-decoration: none;&quot;&gt;&lt;div&gt;- callCMD( const string&amp;amp;, const string&amp;amp;, const size_t&amp;amp; ) : string&lt;/div&gt;&lt;div&gt;- findPrefix( const string&amp;amp; ) : pair&amp;lt;bool, size_t&amp;gt;&lt;/div&gt;&lt;div&gt;+ CommandDecoder( const string&amp;amp;, Oscilloscope* )&lt;/div&gt;&lt;div&gt;+ decode( const string&amp;amp; ) : string&lt;br&gt;&lt;/div&gt;&lt;div&gt;&lt;br&gt;&lt;/div&gt;&lt;/div&gt;" style="text;spacingLeft=4;spacingRight=4;overflow=hidden;rotatable=0;points=[[0,0.5],[1,0.5]];portConstraint=eastwest;fontSize=12;whiteSpace=wrap;html=1;strokeWidth=1;perimeterSpacing=1;strokeColor=default;" vertex="1" parent="8ycHwIcPBkL53dI1Rve8-61">
          <mxGeometry y="140" width="340" height="80" as="geometry" />
        </mxCell>
        <mxCell id="8ycHwIcPBkL53dI1Rve8-73" style="edgeStyle=orthogonalEdgeStyle;rounded=0;orthogonalLoop=1;jettySize=auto;html=1;endArrow=diamondThin;endFill=1;" edge="1" parent="1" source="8ycHwIcPBkL53dI1Rve8-65" target="8ycHwIcPBkL53dI1Rve8-37">
          <mxGeometry relative="1" as="geometry">
            <Array as="points">
              <mxPoint x="1885" y="230" />
              <mxPoint x="1975" y="230" />
            </Array>
          </mxGeometry>
        </mxCell>
        <mxCell id="8ycHwIcPBkL53dI1Rve8-74" style="edgeStyle=orthogonalEdgeStyle;rounded=0;orthogonalLoop=1;jettySize=auto;html=1;endArrow=diamondThin;endFill=1;" edge="1" parent="1" source="8ycHwIcPBkL53dI1Rve8-65">
          <mxGeometry relative="1" as="geometry">
            <mxPoint x="2160" y="200" as="targetPoint" />
            <Array as="points">
              <mxPoint x="1885" y="230" />
              <mxPoint x="2160" y="230" />
            </Array>
          </mxGeometry>
        </mxCell>
        <mxCell id="8ycHwIcPBkL53dI1Rve8-75" style="edgeStyle=orthogonalEdgeStyle;rounded=0;orthogonalLoop=1;jettySize=auto;html=1;entryX=0.5;entryY=1;entryDx=0;entryDy=0;endArrow=diamondThin;endFill=1;" edge="1" parent="1" source="8ycHwIcPBkL53dI1Rve8-65" target="8ycHwIcPBkL53dI1Rve8-45">
          <mxGeometry relative="1" as="geometry">
            <Array as="points">
              <mxPoint x="1885" y="230" />
              <mxPoint x="1785" y="230" />
            </Array>
          </mxGeometry>
        </mxCell>
        <mxCell id="8ycHwIcPBkL53dI1Rve8-76" style="edgeStyle=orthogonalEdgeStyle;rounded=0;orthogonalLoop=1;jettySize=auto;html=1;endArrow=diamondThin;endFill=1;" edge="1" parent="1" source="8ycHwIcPBkL53dI1Rve8-65" target="8ycHwIcPBkL53dI1Rve8-49">
          <mxGeometry relative="1" as="geometry">
            <Array as="points">
              <mxPoint x="1885" y="230" />
              <mxPoint x="1605" y="230" />
            </Array>
          </mxGeometry>
        </mxCell>
        <mxCell id="8ycHwIcPBkL53dI1Rve8-65" value="CommandDecoder" style="swimlane;fontStyle=0;childLayout=stackLayout;horizontal=1;startSize=26;horizontalStack=0;resizeParent=1;resizeParentMax=0;resizeLast=0;collapsible=1;marginBottom=0;align=center;fontSize=14;" vertex="1" collapsed="1" parent="1">
          <mxGeometry x="1800" y="250" width="170" height="30" as="geometry">
            <mxRectangle x="1615" y="510" width="340" height="210" as="alternateBounds" />
          </mxGeometry>
        </mxCell>
        <mxCell id="8ycHwIcPBkL53dI1Rve8-66" value="Класс декодирующий команды" style="text;spacingLeft=4;spacingRight=4;overflow=hidden;rotatable=0;points=[[0,0.5],[1,0.5]];portConstraint=eastwest;fontSize=12;whiteSpace=wrap;html=1;strokeWidth=1;perimeterSpacing=1;strokeColor=default;" vertex="1" parent="8ycHwIcPBkL53dI1Rve8-65">
          <mxGeometry y="26" width="340" height="24" as="geometry" />
        </mxCell>
        <mxCell id="8ycHwIcPBkL53dI1Rve8-67" value="&lt;div&gt;- _prefix : const string&lt;/div&gt;&lt;div&gt;- _tvc :&amp;nbsp;TypeVCommands&lt;/div&gt;&lt;div&gt;- _tsc :&amp;nbsp;TypeSCommands&lt;/div&gt;&lt;div&gt;- _tic :&amp;nbsp;TypeICommands&lt;/div&gt;&lt;div&gt;- _tpc :&amp;nbsp;TypePCommands&lt;/div&gt;" style="text;strokeColor=none;fillColor=none;spacingLeft=4;spacingRight=4;overflow=hidden;rotatable=0;points=[[0,0.5],[1,0.5]];portConstraint=eastwest;fontSize=12;whiteSpace=wrap;html=1;" vertex="1" parent="8ycHwIcPBkL53dI1Rve8-65">
          <mxGeometry y="50" width="340" height="90" as="geometry" />
        </mxCell>
        <mxCell id="8ycHwIcPBkL53dI1Rve8-68" value="&lt;div style=&quot;caret-color: rgb(0, 0, 0); color: rgb(0, 0, 0); font-family: Helvetica; font-size: 12px; font-style: normal; font-variant-caps: normal; font-weight: 400; letter-spacing: normal; orphans: auto; text-align: left; text-indent: 0px; text-transform: none; white-space: normal; widows: auto; word-spacing: 0px; -webkit-text-stroke-width: 0px; text-decoration: none;&quot;&gt;&lt;div&gt;- callCMD( const string&amp;amp;, const string&amp;amp;, const size_t&amp;amp; ) : string&lt;/div&gt;&lt;div&gt;- findPrefix( const string&amp;amp; ) : pair&amp;lt;bool, size_t&amp;gt;&lt;/div&gt;&lt;div&gt;+ CommandDecoder( const string&amp;amp;, Oscilloscope* )&lt;/div&gt;&lt;div&gt;+ decode( const string&amp;amp; ) : string&lt;br&gt;&lt;/div&gt;&lt;div&gt;&lt;br&gt;&lt;/div&gt;&lt;/div&gt;" style="text;spacingLeft=4;spacingRight=4;overflow=hidden;rotatable=0;points=[[0,0.5],[1,0.5]];portConstraint=eastwest;fontSize=12;whiteSpace=wrap;html=1;strokeWidth=1;perimeterSpacing=1;strokeColor=default;" vertex="1" parent="8ycHwIcPBkL53dI1Rve8-65">
          <mxGeometry y="140" width="340" height="70" as="geometry" />
        </mxCell>
      </root>
    </mxGraphModel>
  </diagram>
</mxfile>
